<?xml version="1.0" encoding="utf-8"?>
<!-- Generator: Adobe Illustrator 26.0.3, SVG Export Plug-In . SVG Version: 6.00 Build 0)  -->
<svg version="1.1" id="Layer_1" xmlns="http://www.w3.org/2000/svg" xmlns:xlink="http://www.w3.org/1999/xlink" x="0px" y="0px"
	 viewBox="0 0 52.7 36.7" style="enable-background:new 0 0 52.7 36.7;" xml:space="preserve">
<g>
	<path d="M52.5,1.3C52,0.4,51.4,0,50.7,0H1.6C0.7,0,0,0.7,0,1.6v33.1l0.1,0.9l0,0l0,0l0,0l0,0l0,0v0.1h0.2H0.2h0.1v0.2h0.1V36h0.3
		l0.7,0.7H51h0.3l0.4-0.2l0.6-0.6v-0.2l0.1-0.1l0.1-0.2l0.2-0.2l0.1-33.7L52.5,1.3z M3.2,9.4l14.1,11.2L3.2,31.8V9.4z M6.3,33.5
		L20,22.6l5,4c0.4,0.4,0.9,0.4,1.1,0.4c0.3,0,0.7-0.2,0.9-0.2l5.3-4.1L46,33.6L6.3,33.5L6.3,33.5z M34.8,20.5L48.9,9.3L49,31.8
		L34.8,20.5z M49,5.2L26.1,23.4L3.2,5.2V3.7H49V5.2z"/>
</g>
</svg>
